<mxfile host="app.diagrams.net" modified="2022-06-30T07:40:54.130Z" agent="5.0 (Windows NT 10.0; Win64; x64) AppleWebKit/537.36 (KHTML, like Gecko) Chrome/103.0.5060.53 Safari/537.36" etag="vaOHlzK7bULc2KyWsQwJ" version="20.0.3" type="github">
  <diagram id="zV46lwEu7LYRULikq-Hr" name="Page-1">
    <mxGraphModel dx="1552" dy="711" grid="1" gridSize="10" guides="1" tooltips="1" connect="1" arrows="1" fold="1" page="1" pageScale="1" pageWidth="850" pageHeight="1100" math="0" shadow="0">
      <root>
        <mxCell id="0" />
        <mxCell id="1" parent="0" />
        <mxCell id="uJYRLRxjO0DMNSVMY0b4-1" value="" style="shape=cube;whiteSpace=wrap;html=1;boundedLbl=1;backgroundOutline=1;darkOpacity=0.05;darkOpacity2=0.1;" parent="1" vertex="1">
          <mxGeometry x="80" y="200" width="60" height="60" as="geometry" />
        </mxCell>
        <mxCell id="uJYRLRxjO0DMNSVMY0b4-3" value="" style="shape=cube;whiteSpace=wrap;html=1;boundedLbl=1;backgroundOutline=1;darkOpacity=0.05;darkOpacity2=0.1;" parent="1" vertex="1">
          <mxGeometry x="240" y="200" width="60" height="60" as="geometry" />
        </mxCell>
        <mxCell id="uJYRLRxjO0DMNSVMY0b4-4" value="&lt;font face=&quot;Times New Roman&quot;&gt;F&lt;sub&gt;tr&lt;/sub&gt;&lt;/font&gt;" style="text;html=1;strokeColor=none;fillColor=none;align=center;verticalAlign=middle;whiteSpace=wrap;rounded=0;" parent="1" vertex="1">
          <mxGeometry x="170" y="220" width="40" height="20" as="geometry" />
        </mxCell>
        <mxCell id="uJYRLRxjO0DMNSVMY0b4-10" value="&lt;span style=&quot;font-family: &amp;#34;times new roman&amp;#34;&quot;&gt;W&lt;b&gt;&#39;&lt;/b&gt;&lt;/span&gt;" style="text;html=1;strokeColor=none;fillColor=none;align=center;verticalAlign=middle;whiteSpace=wrap;rounded=0;" parent="1" vertex="1">
          <mxGeometry x="60" y="250" width="40" height="20" as="geometry" />
        </mxCell>
        <mxCell id="uJYRLRxjO0DMNSVMY0b4-11" value="&lt;span style=&quot;font-family: &amp;#34;times new roman&amp;#34;&quot;&gt;H&lt;b&gt;&#39;&lt;/b&gt;&lt;/span&gt;" style="text;html=1;strokeColor=none;fillColor=none;align=center;verticalAlign=middle;whiteSpace=wrap;rounded=0;" parent="1" vertex="1">
          <mxGeometry x="130" y="230" width="40" height="20" as="geometry" />
        </mxCell>
        <mxCell id="uJYRLRxjO0DMNSVMY0b4-12" value="&lt;span style=&quot;font-family: &amp;#34;times new roman&amp;#34;&quot;&gt;&lt;b&gt;&lt;font style=&quot;font-size: 14px&quot;&gt;X&lt;/font&gt;&lt;/b&gt;&lt;/span&gt;" style="text;html=1;fillColor=none;align=center;verticalAlign=middle;whiteSpace=wrap;rounded=0;strokeColor=#000000;" parent="1" vertex="1">
          <mxGeometry x="82" y="170" width="40" height="20" as="geometry" />
        </mxCell>
        <mxCell id="uJYRLRxjO0DMNSVMY0b4-16" value="&lt;span style=&quot;font-family: &amp;#34;times new roman&amp;#34;&quot;&gt;C&lt;b&gt;&#39;&lt;/b&gt;&lt;/span&gt;" style="text;html=1;strokeColor=none;fillColor=none;align=center;verticalAlign=middle;whiteSpace=wrap;rounded=0;" parent="1" vertex="1">
          <mxGeometry x="100" y="260" width="40" height="20" as="geometry" />
        </mxCell>
        <mxCell id="uJYRLRxjO0DMNSVMY0b4-18" value="&lt;span style=&quot;font-family: &amp;quot;times new roman&amp;quot;; font-size: 10px;&quot;&gt;1 &lt;/span&gt;x&lt;span style=&quot;font-family: &amp;quot;times new roman&amp;quot;; font-size: 10px;&quot;&gt; 1 &lt;/span&gt;x &lt;span style=&quot;font-family: &amp;quot;times new roman&amp;quot;; font-size: 10px;&quot;&gt;C&lt;/span&gt;" style="text;html=1;strokeColor=none;fillColor=none;align=center;verticalAlign=middle;whiteSpace=wrap;rounded=0;fontSize=10;" parent="1" vertex="1">
          <mxGeometry x="395" y="197" width="50" height="20" as="geometry" />
        </mxCell>
        <mxCell id="uJYRLRxjO0DMNSVMY0b4-20" value="&lt;span style=&quot;font-family: &amp;#34;times new roman&amp;#34;&quot;&gt;&lt;b&gt;&lt;font style=&quot;font-size: 14px&quot;&gt;U&lt;/font&gt;&lt;/b&gt;&lt;/span&gt;" style="text;html=1;fillColor=none;align=center;verticalAlign=middle;whiteSpace=wrap;rounded=0;strokeColor=#000000;" parent="1" vertex="1">
          <mxGeometry x="240" y="170" width="40" height="20" as="geometry" />
        </mxCell>
        <mxCell id="uJYRLRxjO0DMNSVMY0b4-21" value="&lt;span style=&quot;font-family: &amp;#34;times new roman&amp;#34;&quot;&gt;W&lt;/span&gt;" style="text;html=1;strokeColor=none;fillColor=none;align=center;verticalAlign=middle;whiteSpace=wrap;rounded=0;" parent="1" vertex="1">
          <mxGeometry x="220" y="250" width="40" height="20" as="geometry" />
        </mxCell>
        <mxCell id="uJYRLRxjO0DMNSVMY0b4-22" value="&lt;span style=&quot;font-family: &amp;#34;times new roman&amp;#34;&quot;&gt;H&lt;/span&gt;" style="text;html=1;strokeColor=none;fillColor=none;align=center;verticalAlign=middle;whiteSpace=wrap;rounded=0;" parent="1" vertex="1">
          <mxGeometry x="290" y="230" width="40" height="20" as="geometry" />
        </mxCell>
        <mxCell id="uJYRLRxjO0DMNSVMY0b4-23" value="&lt;span style=&quot;font-family: &amp;#34;times new roman&amp;#34;&quot;&gt;C&lt;/span&gt;" style="text;html=1;strokeColor=none;fillColor=none;align=center;verticalAlign=middle;whiteSpace=wrap;rounded=0;" parent="1" vertex="1">
          <mxGeometry x="260" y="260" width="40" height="20" as="geometry" />
        </mxCell>
        <mxCell id="uJYRLRxjO0DMNSVMY0b4-27" value="" style="endArrow=classic;html=1;" parent="1" edge="1">
          <mxGeometry width="50" height="50" relative="1" as="geometry">
            <mxPoint x="330" y="240" as="sourcePoint" />
            <mxPoint x="590" y="240" as="targetPoint" />
          </mxGeometry>
        </mxCell>
        <mxCell id="uJYRLRxjO0DMNSVMY0b4-28" value="" style="endArrow=classic;html=1;" parent="1" edge="1">
          <mxGeometry width="50" height="50" relative="1" as="geometry">
            <mxPoint x="330" y="230" as="sourcePoint" />
            <mxPoint x="390" y="190" as="targetPoint" />
          </mxGeometry>
        </mxCell>
        <mxCell id="uJYRLRxjO0DMNSVMY0b4-30" value="" style="endArrow=classic;html=1;" parent="1" edge="1">
          <mxGeometry width="50" height="50" relative="1" as="geometry">
            <mxPoint x="450" y="190" as="sourcePoint" />
            <mxPoint x="500" y="190" as="targetPoint" />
          </mxGeometry>
        </mxCell>
        <mxCell id="uJYRLRxjO0DMNSVMY0b4-31" value="" style="endArrow=classic;html=1;" parent="1" edge="1">
          <mxGeometry width="50" height="50" relative="1" as="geometry">
            <mxPoint x="560" y="190" as="sourcePoint" />
            <mxPoint x="600" y="220" as="targetPoint" />
          </mxGeometry>
        </mxCell>
        <mxCell id="uJYRLRxjO0DMNSVMY0b4-32" value="&lt;span style=&quot;font-family: &amp;#34;times new roman&amp;#34;&quot;&gt;W&lt;/span&gt;" style="text;html=1;strokeColor=none;fillColor=none;align=center;verticalAlign=middle;whiteSpace=wrap;rounded=0;" parent="1" vertex="1">
          <mxGeometry x="590" y="250" width="40" height="20" as="geometry" />
        </mxCell>
        <mxCell id="uJYRLRxjO0DMNSVMY0b4-35" value="&lt;font face=&quot;Times New Roman&quot;&gt;F&lt;sub&gt;scale&lt;/sub&gt;(&lt;b&gt;&lt;sup&gt;.&lt;/sup&gt;&lt;/b&gt;, &lt;b&gt;&lt;sup&gt;.&lt;/sup&gt;&lt;/b&gt;)&lt;/font&gt;" style="text;html=1;strokeColor=none;fillColor=none;align=center;verticalAlign=middle;whiteSpace=wrap;rounded=0;" parent="1" vertex="1">
          <mxGeometry x="520" y="215" width="60" height="20" as="geometry" />
        </mxCell>
        <mxCell id="uJYRLRxjO0DMNSVMY0b4-36" value="&lt;font face=&quot;Times New Roman&quot;&gt;F&lt;span style=&quot;font-size: 10px&quot;&gt;&lt;sub&gt;sq (&lt;/sub&gt;&lt;b&gt;.&lt;/b&gt;&lt;sub&gt;)&lt;/sub&gt;&lt;/span&gt;&lt;/font&gt;" style="text;html=1;strokeColor=none;fillColor=none;align=center;verticalAlign=middle;whiteSpace=wrap;rounded=0;" parent="1" vertex="1">
          <mxGeometry x="320" y="190" width="40" height="20" as="geometry" />
        </mxCell>
        <mxCell id="uJYRLRxjO0DMNSVMY0b4-41" value="" style="group" parent="1" vertex="1" connectable="0">
          <mxGeometry x="400" y="180" width="40" height="20" as="geometry" />
        </mxCell>
        <mxCell id="uJYRLRxjO0DMNSVMY0b4-24" value="" style="rounded=0;whiteSpace=wrap;html=1;strokeColor=#000000;" parent="uJYRLRxjO0DMNSVMY0b4-41" vertex="1">
          <mxGeometry width="40" height="20" as="geometry" />
        </mxCell>
        <mxCell id="uJYRLRxjO0DMNSVMY0b4-37" value="" style="endArrow=none;html=1;exitX=0.75;exitY=0;exitDx=0;exitDy=0;entryX=0.75;entryY=1;entryDx=0;entryDy=0;" parent="uJYRLRxjO0DMNSVMY0b4-41" source="uJYRLRxjO0DMNSVMY0b4-24" target="uJYRLRxjO0DMNSVMY0b4-24" edge="1">
          <mxGeometry width="50" height="50" relative="1" as="geometry">
            <mxPoint x="12.426470588235293" y="110" as="sourcePoint" />
            <mxPoint x="31.544117647058822" y="60" as="targetPoint" />
          </mxGeometry>
        </mxCell>
        <mxCell id="uJYRLRxjO0DMNSVMY0b4-38" value="" style="endArrow=none;html=1;exitX=0.5;exitY=0;exitDx=0;exitDy=0;entryX=0.5;entryY=1;entryDx=0;entryDy=0;" parent="uJYRLRxjO0DMNSVMY0b4-41" source="uJYRLRxjO0DMNSVMY0b4-24" target="uJYRLRxjO0DMNSVMY0b4-24" edge="1">
          <mxGeometry width="50" height="50" relative="1" as="geometry">
            <mxPoint x="12.426470588235293" y="110" as="sourcePoint" />
            <mxPoint x="31.544117647058822" y="60" as="targetPoint" />
          </mxGeometry>
        </mxCell>
        <mxCell id="uJYRLRxjO0DMNSVMY0b4-39" value="" style="endArrow=none;html=1;exitX=0.25;exitY=0;exitDx=0;exitDy=0;entryX=0.25;entryY=1;entryDx=0;entryDy=0;" parent="uJYRLRxjO0DMNSVMY0b4-41" source="uJYRLRxjO0DMNSVMY0b4-24" target="uJYRLRxjO0DMNSVMY0b4-24" edge="1">
          <mxGeometry width="50" height="50" relative="1" as="geometry">
            <mxPoint x="12.426470588235293" y="110" as="sourcePoint" />
            <mxPoint x="31.544117647058822" y="60" as="targetPoint" />
          </mxGeometry>
        </mxCell>
        <mxCell id="uJYRLRxjO0DMNSVMY0b4-47" value="&lt;font face=&quot;Times New Roman&quot;&gt;F&lt;span style=&quot;font-size: 10px&quot;&gt;&lt;sub&gt;ex (&lt;/sub&gt;&lt;b&gt;.&lt;/b&gt;&lt;sub&gt;, W)&lt;/sub&gt;&lt;/span&gt;&lt;/font&gt;" style="text;html=1;strokeColor=none;fillColor=none;align=center;verticalAlign=middle;whiteSpace=wrap;rounded=0;" parent="1" vertex="1">
          <mxGeometry x="452.5" y="163" width="47.5" height="20" as="geometry" />
        </mxCell>
        <mxCell id="uJYRLRxjO0DMNSVMY0b4-61" value="" style="group" parent="1" vertex="1" connectable="0">
          <mxGeometry x="510" y="180" width="40" height="20" as="geometry" />
        </mxCell>
        <mxCell id="uJYRLRxjO0DMNSVMY0b4-42" value="" style="group;strokeWidth=1;fillColor=#d5e8d4;container=0;strokeColor=#000000;" parent="uJYRLRxjO0DMNSVMY0b4-61" vertex="1" connectable="0">
          <mxGeometry width="10" height="20" as="geometry" />
        </mxCell>
        <mxCell id="uJYRLRxjO0DMNSVMY0b4-50" value="" style="rounded=0;whiteSpace=wrap;html=1;fillColor=#f8cecc;" parent="uJYRLRxjO0DMNSVMY0b4-61" vertex="1">
          <mxGeometry x="30" width="10" height="20" as="geometry" />
        </mxCell>
        <mxCell id="uJYRLRxjO0DMNSVMY0b4-51" value="" style="rounded=0;whiteSpace=wrap;html=1;fillColor=#fff2cc;" parent="uJYRLRxjO0DMNSVMY0b4-61" vertex="1">
          <mxGeometry x="20" width="10" height="20" as="geometry" />
        </mxCell>
        <mxCell id="uJYRLRxjO0DMNSVMY0b4-52" value="" style="rounded=0;whiteSpace=wrap;html=1;fillColor=#ffe6cc;" parent="uJYRLRxjO0DMNSVMY0b4-61" vertex="1">
          <mxGeometry x="10" width="10" height="20" as="geometry" />
        </mxCell>
        <mxCell id="uJYRLRxjO0DMNSVMY0b4-63" value="" style="group" parent="1" vertex="1" connectable="0">
          <mxGeometry x="610" y="200" width="90" height="80" as="geometry" />
        </mxCell>
        <mxCell id="uJYRLRxjO0DMNSVMY0b4-33" value="&lt;span style=&quot;font-family: &amp;#34;times new roman&amp;#34;&quot;&gt;H&lt;/span&gt;" style="text;html=1;strokeColor=none;fillColor=none;align=center;verticalAlign=middle;whiteSpace=wrap;rounded=0;" parent="uJYRLRxjO0DMNSVMY0b4-63" vertex="1">
          <mxGeometry x="50" y="30" width="40" height="20" as="geometry" />
        </mxCell>
        <mxCell id="uJYRLRxjO0DMNSVMY0b4-34" value="&lt;span style=&quot;font-family: &amp;#34;times new roman&amp;#34;&quot;&gt;C&lt;/span&gt;" style="text;html=1;strokeColor=none;fillColor=none;align=center;verticalAlign=middle;whiteSpace=wrap;rounded=0;" parent="uJYRLRxjO0DMNSVMY0b4-63" vertex="1">
          <mxGeometry x="20" y="60" width="40" height="20" as="geometry" />
        </mxCell>
        <mxCell id="uJYRLRxjO0DMNSVMY0b4-60" value="" style="group" parent="uJYRLRxjO0DMNSVMY0b4-63" vertex="1" connectable="0">
          <mxGeometry width="60" height="60" as="geometry" />
        </mxCell>
        <mxCell id="uJYRLRxjO0DMNSVMY0b4-55" value="" style="shape=cube;whiteSpace=wrap;html=1;boundedLbl=1;backgroundOutline=1;darkOpacity=0.05;darkOpacity2=0.1;fillColor=#f8cecc;" parent="uJYRLRxjO0DMNSVMY0b4-60" vertex="1">
          <mxGeometry x="30" width="30" height="60" as="geometry" />
        </mxCell>
        <mxCell id="uJYRLRxjO0DMNSVMY0b4-57" value="" style="shape=cube;whiteSpace=wrap;html=1;boundedLbl=1;backgroundOutline=1;darkOpacity=0.05;darkOpacity2=0.1;fillColor=#fff2cc;" parent="uJYRLRxjO0DMNSVMY0b4-60" vertex="1">
          <mxGeometry x="20" width="30" height="60" as="geometry" />
        </mxCell>
        <mxCell id="uJYRLRxjO0DMNSVMY0b4-58" value="" style="shape=cube;whiteSpace=wrap;html=1;boundedLbl=1;backgroundOutline=1;darkOpacity=0.05;darkOpacity2=0.1;fillColor=#ffe6cc;" parent="uJYRLRxjO0DMNSVMY0b4-60" vertex="1">
          <mxGeometry x="10" width="30" height="60" as="geometry" />
        </mxCell>
        <mxCell id="uJYRLRxjO0DMNSVMY0b4-59" value="" style="shape=cube;whiteSpace=wrap;html=1;boundedLbl=1;backgroundOutline=1;darkOpacity=0.05;darkOpacity2=0.1;fillColor=#d5e8d4;" parent="uJYRLRxjO0DMNSVMY0b4-60" vertex="1">
          <mxGeometry width="30" height="60" as="geometry" />
        </mxCell>
        <mxCell id="uJYRLRxjO0DMNSVMY0b4-64" value="" style="endArrow=classic;html=1;" parent="1" edge="1">
          <mxGeometry width="50" height="50" relative="1" as="geometry">
            <mxPoint x="160" y="240" as="sourcePoint" />
            <mxPoint x="230" y="240" as="targetPoint" />
          </mxGeometry>
        </mxCell>
        <mxCell id="uJYRLRxjO0DMNSVMY0b4-65" value="&lt;span style=&quot;font-family: &amp;quot;times new roman&amp;quot;; font-size: 10px;&quot;&gt;1 &lt;/span&gt;x&lt;span style=&quot;font-family: &amp;quot;times new roman&amp;quot;; font-size: 10px;&quot;&gt; 1 &lt;/span&gt;x&lt;span style=&quot;font-family: &amp;quot;times new roman&amp;quot;; font-size: 10px;&quot;&gt; C&lt;/span&gt;" style="text;html=1;strokeColor=none;fillColor=none;align=center;verticalAlign=middle;whiteSpace=wrap;rounded=0;fontSize=10;" parent="1" vertex="1">
          <mxGeometry x="505" y="197" width="50" height="20" as="geometry" />
        </mxCell>
        <mxCell id="lqlH1BmYT6D40EOpvJsZ-18" value="" style="edgeStyle=orthogonalEdgeStyle;rounded=0;orthogonalLoop=1;jettySize=auto;html=1;fontFamily=Times New Roman;fontSize=14;" edge="1" parent="1" source="lqlH1BmYT6D40EOpvJsZ-1" target="lqlH1BmYT6D40EOpvJsZ-12">
          <mxGeometry relative="1" as="geometry" />
        </mxCell>
        <mxCell id="lqlH1BmYT6D40EOpvJsZ-1" value="&lt;font style=&quot;font-size: 14px;&quot; face=&quot;Times New Roman&quot;&gt;&lt;b&gt;Input&lt;/b&gt;&lt;/font&gt;" style="rounded=0;whiteSpace=wrap;html=1;" vertex="1" parent="1">
          <mxGeometry x="-270" y="540" width="120" height="60" as="geometry" />
        </mxCell>
        <mxCell id="lqlH1BmYT6D40EOpvJsZ-16" value="" style="edgeStyle=orthogonalEdgeStyle;rounded=0;orthogonalLoop=1;jettySize=auto;html=1;fontFamily=Times New Roman;fontSize=14;" edge="1" parent="1" source="lqlH1BmYT6D40EOpvJsZ-2" target="lqlH1BmYT6D40EOpvJsZ-7">
          <mxGeometry relative="1" as="geometry" />
        </mxCell>
        <mxCell id="lqlH1BmYT6D40EOpvJsZ-2" value="&lt;b style=&quot;font-family: &amp;quot;Times New Roman&amp;quot;; font-size: 14px;&quot;&gt;Reshape&lt;/b&gt;" style="rounded=0;whiteSpace=wrap;html=1;" vertex="1" parent="1">
          <mxGeometry x="70" y="540" width="120" height="60" as="geometry" />
        </mxCell>
        <mxCell id="lqlH1BmYT6D40EOpvJsZ-4" value="&lt;b style=&quot;font-family: &amp;quot;Times New Roman&amp;quot;; font-size: 14px;&quot;&gt;Multiply&lt;/b&gt;" style="rounded=0;whiteSpace=wrap;html=1;" vertex="1" parent="1">
          <mxGeometry x="700" y="540" width="120" height="60" as="geometry" />
        </mxCell>
        <mxCell id="lqlH1BmYT6D40EOpvJsZ-8" value="" style="group" vertex="1" connectable="0" parent="1">
          <mxGeometry x="230" y="540" width="190" height="60" as="geometry" />
        </mxCell>
        <mxCell id="lqlH1BmYT6D40EOpvJsZ-3" value="&lt;b style=&quot;font-family: &amp;quot;Times New Roman&amp;quot;; font-size: 14px;&quot;&gt;ReLU&lt;/b&gt;" style="rounded=0;whiteSpace=wrap;html=1;" vertex="1" parent="lqlH1BmYT6D40EOpvJsZ-8">
          <mxGeometry x="120" width="70" height="60" as="geometry" />
        </mxCell>
        <mxCell id="lqlH1BmYT6D40EOpvJsZ-7" value="&lt;b style=&quot;font-family: &amp;quot;Times New Roman&amp;quot;; font-size: 14px;&quot;&gt;Dense&lt;/b&gt;" style="rounded=0;whiteSpace=wrap;html=1;" vertex="1" parent="lqlH1BmYT6D40EOpvJsZ-8">
          <mxGeometry width="120" height="60" as="geometry" />
        </mxCell>
        <mxCell id="lqlH1BmYT6D40EOpvJsZ-15" value="" style="endArrow=classic;html=1;rounded=0;fontFamily=Times New Roman;fontSize=14;" edge="1" parent="lqlH1BmYT6D40EOpvJsZ-8">
          <mxGeometry width="50" height="50" relative="1" as="geometry">
            <mxPoint x="190" y="30" as="sourcePoint" />
            <mxPoint x="220" y="29.5" as="targetPoint" />
          </mxGeometry>
        </mxCell>
        <mxCell id="lqlH1BmYT6D40EOpvJsZ-9" value="" style="group" vertex="1" connectable="0" parent="1">
          <mxGeometry x="450" y="540" width="190" height="60" as="geometry" />
        </mxCell>
        <mxCell id="lqlH1BmYT6D40EOpvJsZ-10" value="&lt;b style=&quot;font-family: &amp;quot;Times New Roman&amp;quot;; font-size: 14px;&quot;&gt;Sigmoid&lt;/b&gt;" style="rounded=0;whiteSpace=wrap;html=1;" vertex="1" parent="lqlH1BmYT6D40EOpvJsZ-9">
          <mxGeometry x="120" width="70" height="60" as="geometry" />
        </mxCell>
        <mxCell id="lqlH1BmYT6D40EOpvJsZ-11" value="&lt;b style=&quot;font-family: &amp;quot;Times New Roman&amp;quot;; font-size: 14px;&quot;&gt;Dense&lt;/b&gt;" style="rounded=0;whiteSpace=wrap;html=1;" vertex="1" parent="lqlH1BmYT6D40EOpvJsZ-9">
          <mxGeometry width="120" height="60" as="geometry" />
        </mxCell>
        <mxCell id="lqlH1BmYT6D40EOpvJsZ-17" value="" style="edgeStyle=orthogonalEdgeStyle;rounded=0;orthogonalLoop=1;jettySize=auto;html=1;fontFamily=Times New Roman;fontSize=14;" edge="1" parent="1" source="lqlH1BmYT6D40EOpvJsZ-12" target="lqlH1BmYT6D40EOpvJsZ-2">
          <mxGeometry relative="1" as="geometry" />
        </mxCell>
        <mxCell id="lqlH1BmYT6D40EOpvJsZ-12" value="&lt;b&gt;GlobalAveragePooling1D&lt;/b&gt;" style="rounded=0;whiteSpace=wrap;html=1;fontFamily=Times New Roman;fontSize=14;" vertex="1" parent="1">
          <mxGeometry x="-120" y="540" width="160" height="60" as="geometry" />
        </mxCell>
        <mxCell id="lqlH1BmYT6D40EOpvJsZ-14" value="" style="endArrow=classic;html=1;rounded=0;fontFamily=Times New Roman;fontSize=14;exitX=1;exitY=0.5;exitDx=0;exitDy=0;" edge="1" parent="1" source="lqlH1BmYT6D40EOpvJsZ-10">
          <mxGeometry width="50" height="50" relative="1" as="geometry">
            <mxPoint x="650" y="620" as="sourcePoint" />
            <mxPoint x="700" y="570" as="targetPoint" />
          </mxGeometry>
        </mxCell>
        <mxCell id="lqlH1BmYT6D40EOpvJsZ-19" value="" style="endArrow=classic;html=1;rounded=0;fontFamily=Times New Roman;fontSize=14;entryX=0.5;entryY=0;entryDx=0;entryDy=0;" edge="1" parent="1" target="lqlH1BmYT6D40EOpvJsZ-4">
          <mxGeometry width="50" height="50" relative="1" as="geometry">
            <mxPoint x="-140" y="570" as="sourcePoint" />
            <mxPoint x="760" y="490" as="targetPoint" />
            <Array as="points">
              <mxPoint x="-140" y="490" />
              <mxPoint x="760" y="490" />
            </Array>
          </mxGeometry>
        </mxCell>
      </root>
    </mxGraphModel>
  </diagram>
</mxfile>
